# xmcd
#
# Track frame offsets:
#	150
#	14828
#	26684
#	38672
#	50151
#	60412
#	71138
#	86285
#	99036
#	111066
#	125068
#	140092
#	149174
#	162766
#	176600
#	188429
#	197585
#	208546
#
# Disc length: 2932 seconds
#
# Revision: 0
# Processed by: cddbd v1.5.2PL0 Copyright (c) Steve Scherf et al.
# Submitted via: EasyCDDAExtractor 16.0.6.1
#
DISCID=020b7212
DTITLE=Willie Nelson - Country on my mind
DYEAR=1900
DGENRE=Country
TTITLE0=Will You Remember Mine
TTITLE1=Some Other Time
TTITLE2=I Hope So
TTITLE3=Is There Something On Your Mind
TTITLE4=Broken Promises
TTITLE5=Blame It On The Times
TTITLE6=Face Of a Fighter
TTITLE7=Shelter Of Your Arms
TTITLE8=End Of Understanding
TTITLE9=Home Is Where Your Happy
TTITLE10=And So Will You My Love
TTITLE11=Waitng Time
TTITLE12=No Tomorrow In Sight
TTITLE13=Everything But You
TTITLE14=Happiness Lives Next Door
TTITLE15=Right From Wrong
TTITLE16=Go Away
TTITLE17=I'll Stay Around
EXTD=
EXTT0=
EXTT1=
EXTT2=
EXTT3=
EXTT4=
EXTT5=
EXTT6=
EXTT7=
EXTT8=
EXTT9=
EXTT10=
EXTT11=
EXTT12=
EXTT13=
EXTT14=
EXTT15=
EXTT16=
EXTT17=
PLAYORDER=
